<svg width="130" height="17" viewBox="0 0 130 17" fill="none" xmlns="http://www.w3.org/2000/svg">
<path d="M9.47675 7.86358H18.3844V16.5H14.7128L14.2748 12.8076C13.8575 14.1288 13.1135 15.1093 12.0426 15.749C10.9718 16.3887 9.66449 16.7086 8.12079 16.7086C6.71615 16.7086 5.46449 16.3957 4.36582 15.7699C3.28105 15.144 2.42575 14.247 1.79993 13.0788C1.188 11.9106 0.882045 10.5477 0.882045 8.99007C0.882045 6.50066 1.62608 4.53278 3.11416 3.08642C4.60224 1.64007 6.91781 0.916888 10.0609 0.916888C11.8549 0.916888 13.4334 1.20894 14.7963 1.79305C16.1731 2.37715 17.3413 3.28113 18.3009 4.50497C17.6751 4.82483 16.4512 5.46457 14.6294 6.42417L14.1079 6.71623C13.5655 6.17384 12.9327 5.77053 12.2095 5.50629C11.4863 5.22815 10.7214 5.08907 9.91483 5.08907C8.57973 5.08907 7.58536 5.44371 6.93171 6.15298C6.27807 6.84834 5.95125 7.7106 5.95125 8.73974C5.95125 9.85232 6.29893 10.7493 6.9943 11.4308C7.70357 12.1123 8.78138 12.453 10.2277 12.453C10.8536 12.453 11.4585 12.3626 12.0426 12.1818C12.6407 12.001 13.1413 11.6881 13.5446 11.243H9.47675V7.86358ZM24.5372 8.15563C24.5233 8.99007 24.5163 10.2695 24.5163 11.994C24.5163 14.0662 24.5302 15.5682 24.5581 16.5H19.6349L19.6557 14.1427C19.6836 11.556 19.6975 9.56027 19.6975 8.15563C19.6975 6.82053 19.6836 4.92914 19.6557 2.48146L19.6349 0.228477H24.5581C24.5302 2.20331 24.5163 3.81656 24.5163 5.06821C24.5163 6.45894 24.5233 7.48808 24.5372 8.15563ZM32.5354 16.7086C30.1573 16.7086 28.4049 16.1662 27.2784 15.0815C26.1659 13.9828 25.6096 12.5434 25.6096 10.7632C25.6096 9.02483 26.1659 7.61325 27.2784 6.52848C28.4049 5.44371 30.1573 4.90132 32.5354 4.90132C34.1347 4.90132 35.4698 5.16556 36.5407 5.69404C37.6255 6.20861 38.4251 6.91093 38.9397 7.80099C39.4543 8.67715 39.7116 9.66457 39.7116 10.7632C39.7116 12.5573 39.1135 13.9967 37.9175 15.0815C36.7354 16.1662 34.9414 16.7086 32.5354 16.7086ZM32.6188 13.1623C33.5228 13.1623 34.1973 12.9467 34.6424 12.5156C35.0874 12.0844 35.3099 11.5073 35.3099 10.7841C35.3099 10.1026 35.0874 9.54636 34.6424 9.11523C34.1973 8.6702 33.5228 8.44768 32.6188 8.44768C31.7149 8.44768 31.0543 8.66325 30.6371 9.09437C30.2198 9.5255 30.0112 10.0887 30.0112 10.7841C30.0112 11.5073 30.2198 12.0844 30.6371 12.5156C31.0543 12.9467 31.7149 13.1623 32.6188 13.1623ZM49.8151 4.90132C50.7469 4.90132 51.5744 5.18642 52.2975 5.75662C53.0346 6.31291 53.6048 7.05695 54.0081 7.98874C54.4115 8.90662 54.6131 9.88709 54.6131 10.9301C54.6131 11.9871 54.4115 12.9606 54.0081 13.8507C53.6048 14.7268 53.0416 15.4222 52.3184 15.9368C51.5952 16.4513 50.7816 16.7086 49.8777 16.7086C48.8207 16.7086 47.9028 16.4861 47.124 16.0411C46.3452 15.5821 45.7611 14.8659 45.3717 13.8924L44.7667 16.5H40.7615C40.8449 13.8854 40.8866 11.1805 40.8866 8.3851C40.8866 5.56192 40.8449 2.85695 40.7615 0.270199H45.476L45.4134 2.83609C45.3439 4.64404 45.3091 6.25728 45.3091 7.67583C45.6846 6.73013 46.2548 6.03477 47.0197 5.58974C47.7985 5.13079 48.7303 4.90132 49.8151 4.90132ZM47.6873 13.204C48.3548 13.204 48.8833 12.9815 49.2727 12.5364C49.6621 12.0914 49.8568 11.5142 49.8568 10.805C49.8568 10.1652 49.6413 9.65066 49.2101 9.26126C48.7929 8.85795 48.2714 8.65629 47.6456 8.65629C47.3257 8.65629 46.9919 8.73278 46.6442 8.88576C46.2965 9.02483 45.9975 9.26126 45.7472 9.59503C45.4969 9.9149 45.3717 10.3182 45.3717 10.805C45.3717 11.6672 45.5664 12.2861 45.9558 12.6616C46.3452 13.0232 46.9224 13.204 47.6873 13.204ZM69.2396 13.0371C69.2396 13.5099 69.2952 13.8437 69.4064 14.0384C69.5177 14.2331 69.7402 14.3722 70.074 14.4556L69.9905 16.4166C69.5455 16.4861 69.1561 16.5348 68.8223 16.5626C68.5025 16.5904 68.0713 16.6043 67.529 16.6043C66.3329 16.6043 65.5402 16.3401 65.1508 15.8116C64.7614 15.2692 64.5667 14.5808 64.5667 13.7464V13.2248C64.1634 14.3652 63.5723 15.2136 62.7935 15.7699C62.0286 16.3262 61.0482 16.6043 59.8521 16.6043C58.4614 16.6043 57.4114 16.3262 56.7021 15.7699C56.0068 15.2136 55.6591 14.3861 55.6591 13.2874C55.6591 12.3834 55.9581 11.6742 56.5561 11.1596C57.1541 10.645 58.079 10.2904 59.3306 10.0957C58.2737 9.3447 57.2167 8.69106 56.1598 8.13477C56.9942 7.07781 57.9468 6.27815 59.0177 5.73576C60.0886 5.17947 61.3889 4.90132 62.9187 4.90132C65.0604 4.90132 66.6458 5.36722 67.675 6.29901C68.718 7.21689 69.2396 8.63543 69.2396 10.5546V13.0371ZM63.3568 8.57285C62.6475 8.57285 62.0217 8.69106 61.4793 8.92748C60.9369 9.16391 60.4501 9.51854 60.019 9.99139C60.8535 9.89404 61.8965 9.84536 63.1482 9.84536C63.6627 9.84536 64.0243 9.78278 64.2329 9.65762C64.4415 9.53245 64.5458 9.37252 64.5458 9.17781C64.5458 9.01093 64.4415 8.87185 64.2329 8.7606C64.0243 8.63543 63.7323 8.57285 63.3568 8.57285ZM61.1664 13.204C61.9452 13.204 62.6475 13.0579 63.2733 12.7659C63.8992 12.4599 64.3303 12.0636 64.5667 11.5768V11.0344C64.2329 11.2013 63.8644 11.3334 63.4611 11.4308C63.0578 11.5142 62.571 11.5977 62.0008 11.6811L61.2498 11.8063C60.471 11.9593 60.0816 12.2235 60.0816 12.599C60.0816 13.0023 60.4432 13.204 61.1664 13.204ZM75.8151 8.15563C75.8012 8.99007 75.7943 10.2695 75.7943 11.994C75.7943 14.0662 75.8082 15.5682 75.836 16.5H70.9128L70.9337 14.1427C70.9615 11.556 70.9754 9.56027 70.9754 8.15563C70.9754 6.82053 70.9615 4.92914 70.9337 2.48146L70.9128 0.228477H75.836C75.8082 2.20331 75.7943 3.81656 75.7943 5.06821C75.7943 6.45894 75.8012 7.48808 75.8151 8.15563ZM95.0157 5.73576C92.8322 5.66623 90.7114 5.6245 88.6531 5.6106V16.5H83.4379V5.6106C81.3657 5.6245 79.2518 5.66623 77.0961 5.73576V1.35497H95.0157V5.73576ZM107.143 13.0371C107.143 13.5099 107.199 13.8437 107.31 14.0384C107.421 14.2331 107.644 14.3722 107.977 14.4556L107.894 16.4166C107.449 16.4861 107.059 16.5348 106.726 16.5626C106.406 16.5904 105.975 16.6043 105.432 16.6043C104.236 16.6043 103.444 16.3401 103.054 15.8116C102.665 15.2692 102.47 14.5808 102.47 13.7464V13.2248C102.067 14.3652 101.476 15.2136 100.697 15.7699C99.9319 16.3262 98.9515 16.6043 97.7555 16.6043C96.3647 16.6043 95.3147 16.3262 94.6055 15.7699C93.9101 15.2136 93.5624 14.3861 93.5624 13.2874C93.5624 12.3834 93.8614 11.6742 94.4594 11.1596C95.0574 10.645 95.9823 10.2904 97.2339 10.0957C96.177 9.3447 95.12 8.69106 94.0631 8.13477C94.8975 7.07781 95.8502 6.27815 96.921 5.73576C97.9919 5.17947 99.2922 4.90132 100.822 4.90132C102.964 4.90132 104.549 5.36722 105.578 6.29901C106.621 7.21689 107.143 8.63543 107.143 10.5546V13.0371ZM101.26 8.57285C100.551 8.57285 99.925 8.69106 99.3826 8.92748C98.8402 9.16391 98.3535 9.51854 97.9223 9.99139C98.7568 9.89404 99.7998 9.84536 101.051 9.84536C101.566 9.84536 101.928 9.78278 102.136 9.65762C102.345 9.53245 102.449 9.37252 102.449 9.17781C102.449 9.01093 102.345 8.87185 102.136 8.7606C101.928 8.63543 101.636 8.57285 101.26 8.57285ZM99.0697 13.204C99.8485 13.204 100.551 13.0579 101.177 12.7659C101.802 12.4599 102.234 12.0636 102.47 11.5768V11.0344C102.136 11.2013 101.768 11.3334 101.364 11.4308C100.961 11.5142 100.474 11.5977 99.9041 11.6811L99.1531 11.8063C98.3743 11.9593 97.9849 12.2235 97.9849 12.599C97.9849 13.0023 98.3465 13.204 99.0697 13.204ZM113.718 8.15563C113.705 8.99007 113.698 10.2695 113.698 11.994C113.698 14.0662 113.712 15.5682 113.739 16.5H108.816L108.837 14.1427C108.865 11.556 108.879 9.56027 108.879 8.15563C108.879 6.82053 108.865 4.92914 108.837 2.48146L108.816 0.228477H113.739C113.712 2.20331 113.698 3.81656 113.698 5.06821C113.698 6.45894 113.705 7.48808 113.718 8.15563ZM129.727 5.08907L124.554 9.80364C126.32 12.307 127.968 14.5391 129.498 16.5H123.97L122.906 14.7894C122.21 13.6351 121.751 12.8841 121.529 12.5364L119.797 14.1219V16.5H114.999C115.111 13.8576 115.166 11.1805 115.166 8.46854C115.166 5.74272 115.111 3.00993 114.999 0.270199H119.797V9.11523C121.146 7.73841 122.419 6.39636 123.615 5.08907H129.727Z" fill="black"/>
</svg>
